<svg width="35" height="32" viewBox="0 0 35 32" fill="none" xmlns="http://www.w3.org/2000/svg">
<path d="M4.3892 3C4.37027 2.76326 4.28149 2.5786 4.12287 2.44602C3.96662 2.31345 3.72869 2.24716 3.40909 2.24716C3.20549 2.24716 3.03859 2.27202 2.90838 2.32173C2.78054 2.36908 2.68584 2.43419 2.62429 2.51705C2.56274 2.59991 2.53078 2.6946 2.52841 2.80114C2.52367 2.88873 2.53906 2.96804 2.57457 3.03906C2.61245 3.10772 2.67164 3.17045 2.75213 3.22727C2.83262 3.28172 2.93561 3.33144 3.06108 3.37642C3.18655 3.4214 3.3357 3.46165 3.50852 3.49716L4.10511 3.625C4.50758 3.71023 4.85204 3.82268 5.13849 3.96236C5.42495 4.10204 5.65933 4.26657 5.84162 4.45597C6.02391 4.64299 6.15767 4.85369 6.2429 5.08807C6.33049 5.32244 6.37547 5.57812 6.37784 5.85511C6.37547 6.33333 6.25592 6.73816 6.01918 7.0696C5.78243 7.40104 5.44389 7.65317 5.00355 7.82599C4.56558 7.99882 4.03883 8.08523 3.4233 8.08523C2.79119 8.08523 2.23958 7.99171 1.76847 7.80469C1.29972 7.61766 0.935133 7.33002 0.674716 6.94176C0.416667 6.55114 0.286458 6.05161 0.284091 5.44318H2.15909C2.17093 5.66572 2.22656 5.85275 2.32599 6.00426C2.42543 6.15578 2.5651 6.2706 2.74503 6.34872C2.92732 6.42685 3.14394 6.46591 3.39489 6.46591C3.60559 6.46591 3.78196 6.43987 3.92401 6.38778C4.06605 6.3357 4.17377 6.26349 4.24716 6.17116C4.32055 6.07884 4.35843 5.97348 4.3608 5.85511C4.35843 5.74384 4.32173 5.64678 4.25071 5.56392C4.18206 5.47869 4.06842 5.40294 3.9098 5.33665C3.75118 5.26799 3.53693 5.20407 3.26705 5.14489L2.54261 4.98864C1.89867 4.84896 1.39086 4.61577 1.01918 4.28906C0.649858 3.95999 0.466383 3.51136 0.46875 2.94318C0.466383 2.48153 0.589489 2.07789 0.838068 1.73224C1.08902 1.38423 1.43584 1.11316 1.87855 0.919034C2.32363 0.724905 2.83381 0.627841 3.40909 0.627841C3.99621 0.627841 4.50402 0.726089 4.93253 0.922585C5.36103 1.11908 5.69129 1.39607 5.9233 1.75355C6.15767 2.10866 6.27604 2.52415 6.27841 3H4.3892ZM7.12891 0.727273H9.58629L11.2766 4.84659H11.3619L13.0522 0.727273H15.5096V8H13.5778V3.79545H13.521L11.9016 7.94318H10.7369L9.11754 3.76705H9.06072V8H7.12891V0.727273ZM23.4908 4.36364C23.4908 5.1733 23.3333 5.8563 23.0185 6.41264C22.7036 6.96662 22.2786 7.38684 21.7436 7.6733C21.2086 7.95739 20.612 8.09943 19.9538 8.09943C19.291 8.09943 18.692 7.9562 18.157 7.66974C17.6243 7.38092 17.2005 6.95952 16.8857 6.40554C16.5732 5.8492 16.4169 5.16856 16.4169 4.36364C16.4169 3.55398 16.5732 2.87216 16.8857 2.31818C17.2005 1.76184 17.6243 1.34162 18.157 1.05753C18.692 0.77107 19.291 0.627841 19.9538 0.627841C20.612 0.627841 21.2086 0.77107 21.7436 1.05753C22.2786 1.34162 22.7036 1.76184 23.0185 2.31818C23.3333 2.87216 23.4908 3.55398 23.4908 4.36364ZM21.4595 4.36364C21.4595 3.92803 21.4015 3.56108 21.2855 3.26278C21.1719 2.96212 21.0026 2.73485 20.7777 2.58097C20.5552 2.42472 20.2805 2.34659 19.9538 2.34659C19.6271 2.34659 19.3513 2.42472 19.1264 2.58097C18.9039 2.73485 18.7346 2.96212 18.6186 3.26278C18.505 3.56108 18.4482 3.92803 18.4482 4.36364C18.4482 4.79924 18.505 5.16738 18.6186 5.46804C18.7346 5.76634 18.9039 5.99361 19.1264 6.14986C19.3513 6.30374 19.6271 6.38068 19.9538 6.38068C20.2805 6.38068 20.5552 6.30374 20.7777 6.14986C21.0026 5.99361 21.1719 5.76634 21.2855 5.46804C21.4015 5.16738 21.4595 4.79924 21.4595 4.36364ZM0.46875 20V12.7273H2.44318V15.6676H2.54261L4.73011 12.7273H7.03125L4.57386 15.9659L7.08807 20H4.73011L3.09659 17.2727L2.44318 18.125V20H0.46875ZM9.59162 12.7273V20H7.61719V12.7273H9.59162ZM16.82 12.7273V20H15.1722L12.5444 16.179H12.5018V20H10.5273V12.7273H12.2035L14.7887 16.5341H14.8455V12.7273H16.82ZM22.4769 15.1278C22.4461 15.0024 22.3976 14.8923 22.3313 14.7976C22.265 14.7005 22.1822 14.6188 22.0827 14.5526C21.9857 14.4839 21.872 14.433 21.7418 14.3999C21.614 14.3643 21.4731 14.3466 21.3192 14.3466C20.9878 14.3466 20.7049 14.4259 20.4705 14.5845C20.2385 14.7431 20.061 14.9716 19.9379 15.2699C19.8171 15.5682 19.7567 15.928 19.7567 16.3494C19.7567 16.7756 19.8147 17.1402 19.9308 17.4432C20.0468 17.7462 20.2196 17.9782 20.4492 18.1392C20.6789 18.3002 20.9641 18.3807 21.305 18.3807C21.6057 18.3807 21.8555 18.3369 22.0543 18.2493C22.2556 18.1617 22.4059 18.0374 22.5053 17.8764C22.6048 17.7154 22.6545 17.526 22.6545 17.3082L22.9954 17.3438H21.3335V15.9375H24.5579V16.946C24.5579 17.6089 24.417 18.1759 24.1353 18.647C23.8559 19.1158 23.4701 19.4756 22.9776 19.7266C22.4876 19.9751 21.9253 20.0994 21.2908 20.0994C20.583 20.0994 19.9615 19.9491 19.4265 19.6484C18.8915 19.3478 18.4736 18.9193 18.1729 18.3629C17.8746 17.8066 17.7255 17.1449 17.7255 16.3778C17.7255 15.7765 17.8166 15.2438 17.9989 14.7798C18.1836 14.3158 18.4393 13.924 18.766 13.6044C19.0927 13.2824 19.4703 13.0398 19.8988 12.8764C20.3273 12.7107 20.7866 12.6278 21.2766 12.6278C21.7075 12.6278 22.1076 12.6894 22.4769 12.8125C22.8486 12.9332 23.1765 13.1061 23.4606 13.331C23.747 13.5535 23.9779 13.8175 24.1531 14.1229C24.3282 14.4283 24.4348 14.7633 24.4727 15.1278H22.4769ZM0.46875 32V24.7273H3.60795C4.14773 24.7273 4.62003 24.8338 5.02486 25.0469C5.42969 25.2599 5.74456 25.5594 5.96946 25.9453C6.19437 26.3312 6.30682 26.7822 6.30682 27.2983C6.30682 27.8191 6.19081 28.2701 5.95881 28.6513C5.72917 29.0324 5.40601 29.326 4.98935 29.532C4.57505 29.7379 4.09091 29.8409 3.53693 29.8409H1.66193V28.3068H3.1392C3.37121 28.3068 3.56889 28.2666 3.73224 28.1861C3.89796 28.1032 4.02462 27.986 4.11222 27.8345C4.20218 27.683 4.24716 27.5043 4.24716 27.2983C4.24716 27.09 4.20218 26.9124 4.11222 26.7656C4.02462 26.6165 3.89796 26.5028 3.73224 26.4247C3.56889 26.3442 3.37121 26.304 3.1392 26.304H2.44318V32H0.46875ZM7.03125 32V24.7273H9.00568V30.4091H11.946V32H7.03125ZM14.6333 32H12.5027L14.9032 24.7273H17.6021L20.0027 32H17.872L16.2811 26.7301H16.2243L14.6333 32ZM14.2356 29.1307H18.2413V30.608H14.2356V29.1307ZM19.6626 24.7273H21.8643L23.2848 27.6818H23.3416L24.7621 24.7273H26.9638L24.2933 29.7131V32H22.3331V29.7131L19.6626 24.7273ZM28.7544 32H26.6238L29.0243 24.7273H31.7232L34.1238 32H31.9931L30.4022 26.7301H30.3453L28.7544 32ZM28.3567 29.1307H32.3624V30.608H28.3567V29.1307Z" fill="white"/>
</svg>
