{"asset":{"copyright":"","generator":"Aspose GLTF","version":"2.0"},"extensionsUsed":["KHR_materials_unlit"],"accessors":[{"name":"POSITION","bufferView":0,"componentType":5126,"count":37326,"max":[0.26684415340423584,0.5002299547195435,0.14586025476455688],"min":[-0.2695164084434509,-0.5081801414489746,-0.21886372566223145],"type":"VEC3"},{"bufferView":1,"componentType":5123,"count":149092,"type":"SCALAR"}],"bufferViews":[{"buffer":0,"byteLength":447912,"byteStride":12,"target":34962},{"buffer":0,"byteLength":298184,"byteOffset":447912,"target":34963}],"buffers":[{"byteLength":746096,"uri":"model.bin"}],"materials":[{"extensions":{"KHR_materials_unlit":{}},"name":"material1","pbrMetallicRoughness":{}}],"meshes":[{"name":"mesh","primitives":[{"attributes":{"POSITION":0},"indices":1,"material":0,"mode":1}]}],"nodes":[{"mesh":0}],"scenes":[{"name":"Default","nodes":[0]}]}